<?xml version="1.0" encoding="utf-8"?>
<!-- Generator: Adobe Illustrator 19.0.0, SVG Export Plug-In . SVG Version: 6.00 Build 0)  -->
<svg version="1.1" id="Layer_1" xmlns="http://www.w3.org/2000/svg" xmlns:xlink="http://www.w3.org/1999/xlink" x="0px" y="0px"
	 viewBox="0 0 612 792" style="enable-background:new 0 0 612 792;" xml:space="preserve">
<style type="text/css">
	.st0{fill:#FFFFFF;stroke:#FFFFFF;stroke-miterlimit:10;}
	.st1{font-family:'Amiri-Regular';}
	.st2{font-size:54.2459px;}
	.st3{letter-spacing:1;}
</style>
<g id="XMLID_3_">
	<path id="XMLID_176_" d="M303.3,216.3c0.2-0.4,0-0.8-0.3-1.2c-0.1-0.1-0.2-0.3-0.3-0.4c-0.2-0.3-0.4-0.6-0.8-0.6
		c-0.2,0-0.3-0.1-0.4-0.2c-0.1-0.1-0.2-0.2-0.4-0.2c-0.5-0.1-0.8-0.5-1.2-0.7c-0.6-0.4-1.3-0.7-1.9-1.1c-0.5-0.3-1-0.6-1.4-1
		c-0.3-0.3-0.7-0.6-0.8-1c-0.1-0.3-0.3-0.5-0.3-0.8c-0.1-0.8-0.6-1.4-1.1-2c-0.2-0.3-0.3-0.6-0.7-0.7c-0.2,0-0.3-0.2-0.3-0.5
		c0-0.2-0.2-0.4-0.2-0.6c0-0.1-0.1-0.2-0.1-0.3c-0.1-1-0.8-1.6-1.5-2.2c-0.5-0.4-1-0.5-1.6-0.3c-0.2,0.1-0.3,0.1-0.5,0.1
		c-0.8,0.1-1.5,0.3-2.3,0.4c-0.1,0-0.2,0.1-0.3,0.1c-0.3,0-0.7,0-1,0.1c-0.2,0.1-0.4,0.3-0.6,0.6c-0.4,0.6-0.8,1.3-1.2,1.9
		c-0.2,0.3-0.3,0.6-0.5,0.9c-0.2,0.4-0.5,0.8-0.7,1.2c-0.2,0.4-0.5,0.7-0.7,1.1c-0.4,0.7-0.9,1.5-1.3,2.3c-0.5,1-1,2-1.3,3.1
		c-0.1,0.3-0.4,0.6-0.5,0.9c-0.2,0.5-0.4,1-0.6,1.5c0,0,0,0.1,0,0.1c0,0.2,0.6,1.5,0.7,1.6c0.4,0.4,0.9,0.8,1.3,1.3
		c0.2,0.2,0.3,0.4,0.2,0.7c-0.1,0.5-0.2,1-0.1,1.5c0,0.1,0,0.3,0,0.4c-0.2,0.6-0.4,1.2-0.5,1.9c-0.1,0.5,0,1.1,0,1.6
		c0,0.3,0,0.6,0,1c0,0.3-0.1,0.6-0.2,1c-0.2,0.6-0.2,1.2,0,1.8c0.1,0.2,0.3,0.4,0.3,0.6c0.2,0.6,0.4,1.2,0.6,1.7c0,0.1,0,0.3,0,0.4
		c0,0.3,0,0.6-0.1,0.9c-0.1,0.8-0.2,1.6-0.3,2.4c-0.2,1-0.4,1.9-0.5,2.9c0,0.1,0,0.3,0,0.4c0.2,0.8,0,1.5,0,2.3c0,0.8,0,1.6,0,2.4
		c0.1,1.8-0.1,3.7-0.2,5.5c0,0.6-0.1,1.2-0.1,1.8c0,0.3,0.2,0.6,0.1,0.8c-0.1,0.3,0,0.6,0,0.9c0,0.5,0,1-0.1,1.4
		c-0.1,1-0.1,2.1-0.1,3.1c0,1,0,2,0,2.9c0,0.9,0,1.9,0,2.8c0,1.2-0.1,2.5-0.1,3.7c0.1,0.9-0.1,1.9,0.1,2.8c0.1,0.4,0,0.9,0,1.4
		c0,0.9,0,1.9,0,2.8c0,0.8-0.1,1.6-0.1,2.4c0,0.3,0,0.6,0,0.9c0,1,0,1.9,0,2.9c0,0.6-0.1,1.1-0.1,1.7c0,0.3,0,0.6,0,0.9
		c-0.1,1,0.1,2,0,3c-0.1,0.7,0,1.4,0.1,2.1c0,0.2,0.1,0.4,0.2,0.5c0.3,0.4,0.3,0.5,0.1,0.9c-0.2,0.3-0.3,0.6-0.7,0.5
		c-0.1,0-0.1,0.1-0.2,0.2c-0.4,0.3-0.9,0.2-1-0.3c-0.1-0.6-0.4-0.8-0.9-0.9c-0.1,0-0.1-0.1-0.2-0.1c-0.1-0.5-0.1-0.9-0.2-1.4
		c0-0.1,0-0.3,0-0.4c0.1-0.3,0.2-0.5,0.1-0.8c0-0.1,0-0.2,0-0.3c0.3-0.6,0.1-1.3,0.2-2c0-0.2,0-0.4,0-0.7c0-0.1,0.1-0.3,0-0.4
		c-0.2-0.8,0-1.5,0.1-2.3c0-0.1,0-0.1,0-0.2c0.1-1.3,0-2.5,0.2-3.8c0.3-1.9,0.2-3.7,0.4-5.6c0.1-1,0-2,0.1-2.9
		c0-0.6,0.1-1.2,0.1-1.8c0-0.3,0-0.5,0-0.8c0.1-1,0.2-1.9,0.2-2.9c0-0.7,0-1.4,0.1-2.2c0-0.4,0.1-0.8,0.1-1.2
		c0.1-0.8,0.1-1.7,0.1-2.5c0-1.4,0-2.8,0-4.2c0-0.3,0-0.5,0-0.8c0-1.1,0.1-2.1,0.1-3.2c0-0.4,0.1-0.8,0.1-1.3c0-0.8-0.1-1.6-0.1-2.4
		c0-0.7,0-1.5,0-2.2c0-0.8,0-1.5-0.1-2.3c0-0.3,0-0.6,0-0.9c0-1,0.1-2,0.1-3c0-0.2,0-0.3,0.1-0.5c0.3-0.9,0.4-1.7,0.4-2.6
		c0-0.1,0-0.3,0-0.4c0-0.1,0.1-0.2,0-0.3c-0.2-0.5-0.4-0.9-0.6-1.3c-0.1-0.3-0.4-0.5-0.5-0.8c0-0.1-0.1-0.2-0.1-0.2
		c0.2-0.6-0.1-1.1,0-1.7c0.2-0.8,0.2-1.7,0.3-2.5c0-0.3,0-0.6,0-0.9c0.1-0.8,0.2-1.5,0.3-2.2c0-0.2,0-0.4,0-0.6
		c-0.1-0.4-0.2-0.8,0-1.3c0.1-0.3,0.1-0.7,0.1-1c-0.3-0.2-0.5-0.4-0.5-0.7c0,0,0-0.1,0-0.1c-0.1-0.2-0.3-0.3-0.3-0.6
		c-0.1-0.9-0.3-1.8,0-2.7c0.1-0.2,0.1-0.5,0.2-0.7c0-0.1,0-0.3,0.1-0.4c0.3-0.4,0.6-0.9,0.8-1.4c0.3-0.5,0.5-1,0.6-1.5
		c0.1-0.4,0.3-0.7,0.5-1c0.3-0.6,0.6-1.1,0.9-1.7c0.1-0.2,0.1-0.3,0.2-0.5c0-0.1,0-0.2,0.1-0.3c0.6-0.5,0.7-1.3,1.1-1.9
		c0.2-0.3,0.3-0.6,0.5-0.9c0.3-0.5,0.6-0.9,0.9-1.4c0.2-0.4,0.5-0.8,0.7-1.2c0.1-0.2,0.2-0.5,0.3-0.7c0.2-0.3,0.5-0.6,0.7-0.9
		c0.1-0.1,0.2-0.2,0.3-0.3c0.4-0.5,0.9-0.5,1.5-0.5c0.3,0,0.7,0.1,1-0.1c0.1-0.1,0.2,0,0.3,0c0.8,0,1.5-0.3,2.3-0.5
		c0.3-0.1,0.7-0.1,1-0.2c0.5-0.1,0.9-0.1,1.3,0.2c0.3,0.2,0.7,0.3,1,0.5c0.5,0.3,0.8,0.8,0.8,1.4c0,0,0,0.1,0,0.1
		c0.4,0.4,0.2,0.9,0.3,1.4c0.1,0.5,0.2,1,0.5,1.5c0,0.1,0,0.2,0.1,0.3c0.1,0.4,0.2,0.7,0.5,1c0.6,0.8,1.2,1.7,1.8,2.5
		c0.2,0.3,0.6,0.6,0.7,1c0,0.1,0.2,0.2,0.3,0.2c0.9,0.1,1.7,0.6,2.5,1c0.6,0.4,1.2,0.4,1.8,0.6c0.4,0.2,0.8,0.3,1.2,0.5
		c0.1,0,0.2,0.1,0.4,0.1c0.5,0,0.8,0.3,1.1,0.6c0.2,0.2,0.3,0.5,0.4,0.8c0.2,0.6,0.3,1.2,0.4,1.8c0,0.1,0,0.2,0,0.3
		c0.1,0.4,0.1,0.9,0.2,1.3c0,0.2,0,0.4,0.1,0.6c0,0.1,0,0.1,0,0.2c-0.1,1.1,0.2,2.1,0.5,3.2c0.1,0.4,0.3,0.9,0.4,1.3
		c0,0.1,0.1,0.2,0.2,0.3c0,0,0.1,0.1,0.1,0.1c0,0.6,0.6,1,0.8,1.5c0.2,0.3,0.5,0.5,0.8,0.8c0.2,0.2,0.5,0.3,0.8,0.4
		c0.2,0.1,0.5,0.2,0.7,0.1c0.1,0,0.3,0,0.5,0.1c0.3,0.1,0.5,0.3,0.8,0.4c1.3,0.5,2.3,1.5,2.9,2.7c0.2,0.4,0.3,0.8,0.4,1.3
		c0.2,0.5,0.4,1,0.6,1.4c0.1,0.3,0.3,0.5,0.7,0.4c0.4-0.1,0.8,0,1.1,0.1c0.9,0.2,1.3,0.8,1.3,1.7c0,0.6-0.1,1.3-0.1,1.9
		c0,0.2,0,0.5,0,0.7c0,0.2,0,0.4,0,0.6c-0.1,0.3,0,0.5,0.2,0.7c0.3,0.3,0.6,0.7,0.9,1c0.4,0.3,0.9,0.6,1.4,0.2
		c0.2-0.2,0.5,0.1,0.7,0c0.1,0,0.2,0.1,0.3,0.1c0.3,0,0.6-0.1,0.8,0.1c0.5,0.4,0.9,0.8,1.1,1.4c0.2,0.4,0.2,0.9,0.3,1.3
		c0,0.2,0,0.3,0.1,0.5c0.3,0.5,0.3,1,0.4,1.6c0.1,0.6,0.2,1.2,0.2,1.7c0,0.6,0,1.3-0.1,1.9c0,0.4-0.1,0.8-0.1,1.2
		c0,0.4,0.1,0.8,0.1,1.2c0,1.3,0,2.5,0,3.8c0,1.3,0.1,2.7,0.3,4c0,0.3,0.1,0.6,0.1,0.9c-0.1,1.1,0.1,2.2,0.1,3.3
		c0,1.4,0.1,2.8,0.2,4.2c0,0.3-0.1,0.6-0.1,0.9c0,0.7,0,1.5,0,2.2c0,1.2,0.1,2.4,0.2,3.7c0,0.4,0.1,0.8,0.1,1.3c0,0.7-0.1,1.4,0.1,2
		c0,0.2,0.1,0.4,0.1,0.6c0,0.3,0,0.6,0,0.9c0,0.5,0.1,1,0.1,1.6c0,0.7,0,1.4,0.1,2.2c0.1,0.6,0.2,1.2,0.3,1.9c0,0.4,0,0.9,0,1.3
		c0,0.1,0,0.2-0.1,0.2c-0.5,0.2-0.8,0.7-1.2,1c-0.2,0.1-0.4,0.1-0.7-0.1c-0.4-0.4-0.6-0.8-0.6-1.3c-0.1-1.2,0-2.5-0.2-3.7
		c-0.2-0.7-0.2-1.5-0.1-2.2c0-0.2,0.1-0.4,0.2-0.6c-0.2-0.3-0.2-0.6-0.2-1c0-0.6,0-1.3,0-1.9c0-0.3,0.1-0.6,0-0.8
		c0-0.8-0.1-1.6-0.1-2.4c0-0.6,0-1.1,0-1.7c0-0.9,0.1-1.8,0.1-2.7c0-0.6,0-1.3-0.1-1.9c0-0.8-0.1-1.5-0.2-2.3c0-0.1,0-0.2,0-0.3
		c0-0.2,0-0.5,0-0.7c0-0.4,0-0.8,0-1.2c0-0.4-0.1-0.8-0.1-1.2c0-0.2,0-0.4,0-0.7c0.1-1.4,0-2.8-0.2-4.2c0-0.1,0-0.2,0-0.2
		c0.3-1.2-0.1-2.5-0.1-3.7c0-0.6,0-1.3,0-1.9c0-0.3-0.1-0.6-0.1-1c0-0.2-0.1-0.4-0.1-0.6c0-0.8-0.1-1.6-0.2-2.4
		c0-0.3-0.1-0.5-0.2-0.8c-0.1-0.2-0.1-0.4-0.2-0.6c-0.1-0.9-0.6-1.6-1.3-2.2c-0.2-0.2-0.6-0.3-0.9-0.4c-0.6-0.1-1.2-0.4-1.8-0.7
		c-0.7-0.4-1.1-1-1.2-1.9c0-0.4-0.1-0.7-0.4-0.9c0,0-0.1-0.1-0.1-0.2c0.1-0.5-0.3-0.9-0.4-1.4c-0.1-0.3-0.3-0.4-0.6-0.5
		c-0.4-0.1-0.8-0.2-1.2-0.4c-0.2-0.1-0.3-0.3-0.4-0.5c-0.3-0.6-0.4-1.3-0.5-2c0-0.6-0.3-1.1-0.6-1.6c-0.3-0.6-0.9-1-1.2-1.6
		c-0.1-0.3-0.3-0.5-0.7-0.5c-0.2,0-0.4-0.1-0.5-0.3c-0.2-0.3-0.5-0.4-0.8-0.6c-0.1-0.1-0.3-0.1-0.4-0.2c-0.6-0.4-1.2-0.9-1.8-1.3
		c-0.3-0.2-0.6-0.5-0.8-0.7c-0.2-0.2-0.2-0.5-0.3-0.7c-0.2-0.4-0.5-0.8-0.8-1.1c0-0.1-0.1-0.1-0.1-0.2c-0.1-0.5-0.5-1-0.3-1.5
		c0-0.1,0-0.2,0-0.3c-0.2-0.4-0.4-0.9-0.6-1.3c-0.3-0.8-0.8-1.4-0.9-2.3C303.7,217.2,303.5,216.8,303.3,216.3z"/>
	<path id="XMLID_170_" d="M292.6,244.6c-0.1,0.4-0.1,0.9,0,1.3c0.1,0.3,0.1,0.6,0.2,0.9c0,0.1,0,0.2,0,0.3c-0.3,0.5-0.1,1.1,0,1.6
		c0.1,0.5,0.1,0.9-0.2,1.3c-0.2,0.3-0.4,0.4-0.7,0.3c-0.3-0.1-0.4-0.3-0.5-0.5c-0.1-0.5-0.1-1,0.1-1.6c0.1-0.3,0.1-0.7,0-1.1
		c0-0.4-0.2-0.8,0-1.2c0-0.1,0-0.1,0-0.2c0-0.6,0-1.2,0.1-1.8c0-0.1,0-0.3,0-0.4c-0.2-0.7-0.1-1.4,0-2c0-0.1,0-0.2,0-0.3
		c0-0.3-0.3-0.6,0-0.9c-0.2-0.3-0.1-0.7-0.1-1c0-0.6,0-1.2-0.1-1.8c-0.2-1.2,0-2.3-0.2-3.5c0-0.2-0.1-0.3-0.1-0.5
		c0-0.2-0.1-0.4,0-0.6c0-0.6,0.1-1.2,0.1-1.8c0-0.2,0-0.4,0-0.5c0-0.5,0-1-0.1-1.5c0-0.2,0-0.3,0-0.5c0-0.9,0-1.7,0-2.6
		c0-0.2,0-0.3,0-0.5c0-0.3-0.1-0.5-0.1-0.8c-0.1-0.3-0.2-0.5-0.3-0.7c-0.1-0.1-0.2-0.2-0.4-0.2c-0.5-0.1-0.7-0.4-0.8-0.8
		c0-0.4-0.2-0.8,0-1.3c0-0.1,0-0.1,0-0.2c-0.1-0.8,0.3-1.5,0.5-2.2c0-0.1,0.1-0.3,0.1-0.4c0.1-0.3,0.2-0.6,0.3-0.9
		c0.1-0.4,0.3-0.7,0.4-1.1c0.1-0.2,0.2-0.4,0.5-0.4c0.3,0,0.4-0.2,0.6-0.4c0.3-0.5,0.4-0.5,1-0.3c0.5,0.2,0.9,0.6,1.4,0.7
		c0.2,0,0.4,0.3,0.5,0.5c0.2,0.3,0.5,0.6,0.5,1.1c0,0.5,0.2,1.1,0.4,1.6c0.1,0.5-0.1,0.8-0.3,1.2c-0.2,0.4-0.6,0.8-0.8,1.2
		c-0.1,0.1,0,0.3,0,0.5c0,0.2,0.1,0.5-0.1,0.7c-0.1,0.1-0.1,0.3-0.1,0.4c0,0.3,0.1,0.6-0.1,0.8c-0.1,0.1,0,0.2,0,0.3
		c0,1,0.1,1.9,0.1,2.9c0,0,0,0.1,0,0.1c-0.2,0.4-0.1,0.9-0.1,1.3c-0.2,0.8,0.1,1.6-0.1,2.4c-0.1,0.3,0,0.7-0.1,1
		c-0.1,0.9-0.1,1.7-0.2,2.6c0,0,0,0.1,0,0.1c0.2,0.8-0.1,1.6,0,2.4c0,0.7-0.1,1.3-0.1,2c0.1,1.2,0,2.4,0.3,3.6c0.1,0.3,0,0.7,0,1.1
		c0,0.1-0.1,0.2-0.2,0.3c-0.2,0.1-0.4,0.3-0.6,0.3C293.1,244.7,292.9,244.6,292.6,244.6z M293.3,221.3c0.3-0.4,0.6-0.8,1-1.2
		c0.2-0.2,0.2-0.4,0.2-0.7c0-0.2,0-0.4,0-0.7c0-0.4-0.3-0.8-0.7-0.8c-0.2,0-0.4,0-0.5-0.2c-0.1-0.2-0.8-0.2-1,0
		c-0.5,0.3-0.7,0.8-0.5,1.4c0.2,0.7,0,1.2-0.5,1.7c-0.6,0.5-0.5,1.2,0.2,1.6c0.2,0.1,0.5,0.3,0.6,0.6c0.2,0.6,0.6,1.2,0.5,1.9
		c0,0.3,0,0.5,0,0.8c0.1,1.1,0,2.2-0.1,3.3c-0.1,0.6-0.1,1.2,0,1.9c0.1,0.7-0.2,1.4,0.1,2.2c-0.2,0.4-0.1,0.9-0.1,1.4
		c0,0.5,0,1.1,0,1.6c0,0.5,0.1,1,0.1,1.5c0,0.2,0.1,0.3,0.2,0.3c0.2,0,0.3-0.1,0.4-0.3c0.1-0.3,0.1-0.5,0.1-0.8c0-0.9-0.1-1.7,0-2.6
		c0.1-0.6,0.1-1.1,0.1-1.7c0-1,0.1-2-0.1-3c-0.1-0.3-0.1-0.6,0.1-0.9c0,0,0-0.1,0-0.2c-0.1-0.5,0-1,0-1.5c0-0.4,0.1-0.8,0.1-1.1
		c-0.1-0.4-0.1-0.8-0.1-1.2c0-0.6,0.1-1.1,0.2-1.6C293.3,222.4,293.3,221.9,293.3,221.3z M292.7,243.6c0.1-0.1,0.1-0.2,0.1-0.2
		c0.1-0.7,0.1-1.4,0.1-2c0-0.8,0-1.6-0.1-2.4c0-0.2,0-0.4-0.1-0.6c0-0.1-0.2-0.1-0.3-0.2c-0.1,0.1-0.2,0.2-0.2,0.3
		c0,0.3,0,0.6,0,0.9c0,0.6,0.1,1.3,0.1,1.9c0,0.6,0,1.3,0.1,1.9C292.5,243.3,292.6,243.4,292.7,243.6z"/>
	<path id="XMLID_164_" d="M283.8,222.6c0.2-0.3,0.4-0.5,0.7-0.6c0.3-0.1,0.6-0.2,0.6-0.6c0,0,0,0,0-0.1c0.4-0.3,0.5-0.9,0.8-1.2
		c0.3-0.3,0.2-0.8-0.1-1c-0.4-0.2-0.7-0.5-0.7-1c0-0.1-0.1-0.2-0.2-0.3c-0.3-0.2-1,0.1-1.1,0.4c-0.2,0.6-0.6,1.1-0.6,1.7
		c-0.4,0.6-0.3,1.3-0.2,2c0.1,0.6,0,0.8-0.8,1c-0.2-0.1-0.4-0.2-0.5-0.3c-0.3-0.7,0-1.4-0.1-2.1c0-0.2,0.2-0.4,0.2-0.6
		c0.2-0.6,0.4-1.3,0.6-1.9c0.3-1,1.1-1.6,2.1-1.6c0.2,0,0.4-0.1,0.7-0.1c0.3,0.3,0.7,0.6,1,0.9c0,0.5,0.2,1,0.6,1.4
		c0.4,0.4,0.4,0.9,0.3,1.5c-0.1,0.2,0,0.4,0,0.7c0,0.1,0.1,0.2,0.1,0.3c0.1,0.5,0,1-0.6,1.3c-0.1,0.1-0.2,0.2-0.3,0.3
		c-0.1,0.1-0.3,0.2-0.4,0.3c-0.3,0-0.4,0.2-0.5,0.4c-0.4,0.5-0.2,1,0,1.4c0.2,0.4,0.1,0.7,0,1.1c-0.1,0.2-0.1,0.5-0.2,0.7
		c0,0.2,0,0.4-0.1,0.5c-0.2,0.4-0.2,0.9-0.2,1.3c0,1.2,0,2.4-0.1,3.5c0,0.2,0,0.5,0,0.7c0.1,0.7,0,1.4-0.1,2.1c0,0.2,0,0.4,0,0.6
		c0,1.3,0,2.5,0,3.8c0,0.6,0,1.3,0.2,1.9c0.1,0.3,0.1,0.5,0.2,0.8c0.1,0.3,0.1,0.6,0,0.9c-0.1,0.4-0.1,0.8-0.3,1.2
		c-0.2,0.4-0.6,0.5-0.8,0.1c-0.3-0.4-0.5-0.9-0.4-1.5c0.1-0.5,0.3-1.1,0.1-1.6c0-0.1,0-0.1,0-0.2c0.1-1.1,0.2-2.3,0.3-3.4
		c0.1-0.9,0.1-1.9,0.1-2.8c0-0.5,0-1,0-1.5c0-0.9,0-1.8,0-2.7c0-0.1,0-0.1,0-0.2c0.2-0.8,0.1-1.6,0.1-2.4c0-0.4-0.1-0.8-0.1-1.2
		c0-0.4-0.1-0.8-0.1-1.2c0-0.6,0.1-1.2,0.1-1.8C284.2,223,284.1,222.8,283.8,222.6z"/>
	<path id="XMLID_161_" d="M313.9,246.6c0.5,0.1,0.5,0.6,0.6,0.9c0.1,0.8,0.1,1.6,0.1,2.4c0,0.8,0.1,1.6,0,2.4c-0.1,1.3,0,2.6,0,3.9
		c0,1.6,0,3.3,0.1,4.9c0,1,0.2,2.1,0.3,3.1c0,1.1,0.3,2.1,0.4,3.1c0,0,0,0.1,0,0.1c0.2,0.9,0.4,1.8,0.6,2.8c0.2,0.5,0.4,1,0.5,1.6
		c0,0.4,0.1,0.8,0.1,1.1c-0.1,0.1-0.1,0.1-0.1,0.1c-0.7,0.4-0.9,0.3-1.2-0.5c-0.1-0.4-0.4-0.8-0.9-0.9c-0.5-0.1-0.6-0.4-0.5-0.9
		c0.2-0.8,0.3-1.6,0.2-2.4c-0.1-1.1-0.1-2.2-0.1-3.3c0-0.2,0-0.3,0-0.5c-0.1-1.2-0.3-2.4-0.3-3.5c-0.1-0.8,0-1.5-0.1-2.3
		c0-0.6,0-1.2,0.1-1.8c0-0.1,0-0.2,0-0.3c-0.3-1.1-0.2-2.3-0.1-3.4c0-0.7,0.2-1.5,0.1-2.2c-0.1-1.3,0.2-2.6,0.1-3.9
		C313.6,247,313.7,246.8,313.9,246.6z"/>
	<path id="XMLID_160_" d="M307.9,264.5c0.1,0.7,0.2,1.3,0.2,2c0,0.4-0.1,0.7-0.1,1.1c0,0.5,0.1,1,0.2,1.5c0.2,0.5,0.1,1.1,0.2,1.6
		c0,0.8,0,1.6,0,2.4c0,0.9,0,1.8,0.1,2.6c0.1,1.1,0,2.3,0.3,3.4c0.2,0.6,0.2,1.3,0.3,2c0,0.3-0.1,0.6,0,0.9c0,0.3,0.1,0.6,0.1,0.9
		c0,0.2,0,0.5,0,0.7c0,0.3-0.2,0.4-0.5,0.5c-0.4,0.1-0.6,0.1-1-0.3c-0.3-0.3-0.7-0.5-0.8-1c-0.1-0.3,0-0.6,0-0.9
		c0-1.1-0.1-2.2-0.1-3.3c0-1.1,0.1-2.3,0.1-3.4c0-0.8,0.1-1.7,0.1-2.5c0.1-1.4,0.1-2.9,0.1-4.3c0-1.1,0-2.3,0.1-3.4
		c0-0.3,0-0.6-0.1-0.9c0-0.3,0-0.6,0.2-0.9c0.1-0.1,0.2-0.2,0.3-0.2c0.1,0,0.2,0.2,0.3,0.3c0.1,0.1,0.1,0.3,0.1,0.4
		C308,264,308,264.3,307.9,264.5C308,264.5,307.9,264.5,307.9,264.5z"/>
	<path id="XMLID_158_" d="M283.2,252.7c-0.3,0.1-0.5-0.1-0.7-0.3c-0.1-0.1-0.1-0.3-0.1-0.4c0-0.2,0.1-0.4,0.1-0.7c0-0.1,0-0.2,0-0.3
		c-0.2-0.4-0.1-0.7,0-1.1c0-0.1,0.1-0.1,0.1-0.2c0-0.7,0-1.5,0-2.2c0-0.1,0-0.3,0-0.4c0-0.1,0-0.2,0-0.3c-0.3-1.1-0.2-2.2-0.3-3.3
		c-0.1-0.7-0.1-1.4-0.2-2.1c-0.1-0.8-0.1-1.6-0.1-2.4c0-0.9,0.1-1.7-0.1-2.6c0,0,0,0,0-0.1c0.1-0.6,0.1-1.2,0.2-1.9
		c0-0.2,0-0.5,0-0.7c0-0.1,0-0.1,0-0.2c0.1-1.1,0.2-2.1,0.3-3.2c0-0.4,0-0.7,0-1.1c0.1-1,0-2,0.1-3c0-0.8,0.2-1.6,0.3-2.5
		c0-0.1,0.1-0.1,0.1-0.2c0.3,0,0.4,0.2,0.5,0.5c0.1,0.2,0.1,0.4,0.1,0.6c0,1.4-0.1,2.7-0.1,4.1c0,0.4,0,0.7,0,1.1
		c0,1.2-0.1,2.4-0.2,3.5c0,1.2-0.1,2.4-0.1,3.5c0,1.1,0,2.3,0,3.4c0,0.9,0.2,1.7,0.3,2.6c0,0.5,0,1,0.1,1.5c0.1,1.2,0.2,2.3,0.3,3.5
		c0,0.2,0,0.4,0.1,0.5c0.2,0.5,0.2,0.9,0.2,1.4c0,0.4-0.1,0.8,0.1,1.1c0.1,0.1,0,0.4-0.1,0.6C283.6,251.9,283.4,252.2,283.2,252.7z"
		/>
	<path id="XMLID_157_" d="M291.7,266.2c-0.2,0.2-0.5,0.1-0.7,0c-0.2-0.1-0.5-0.2-0.7-0.2c-0.4,0.1-0.5-0.1-0.7-0.4
		c-0.5-0.5-0.6-1-0.3-1.6c0.1-0.3,0.2-0.6,0.3-1c0.1-0.4,0.1-0.8,0.1-1.2c0-0.6,0.1-1.1,0.1-1.7c0-0.7,0-1.4,0-2.1
		c0-0.2,0-0.5,0.2-0.7c0.1-0.1,0.2-0.4,0.2-0.6c0-0.3,0.2-0.5,0.4-0.7c0.3,0.1,0.3,0.4,0.4,0.6c0.1,0.9,0.3,1.7,0.2,2.6
		c0,0.2,0,0.4,0.1,0.6c0.1,0.7,0.1,1.5,0.2,2.2c0,0.2,0.1,0.4,0.2,0.6c0.1,0.4,0.4,0.8,0.3,1.3c0,0.1,0,0.2,0,0.3c0,0.3,0,0.5,0,0.8
		C291.8,265.7,291.7,266,291.7,266.2z"/>
	<path id="XMLID_155_" d="M287.1,276.2c0,0.9,0.1,1.8,0.1,2.6c0,0.4,0,0.8,0.1,1.1c0.1,0.4,0.3,0.7,0.1,1.2c-0.1,0.1,0,0.3,0.1,0.5
		c0.2,0.3,0,0.7-0.1,1c0,0.1-0.1,0.2-0.2,0.2c-0.1,0.1-0.3,0.2-0.4,0.3c-0.3,0.2-0.5,0.2-0.6-0.1c-0.1-0.1-0.2-0.3-0.2-0.4
		c-0.1-0.6-0.3-1.2-0.1-1.8c0.1-0.4,0.1-0.8,0.1-1.3c0-0.5,0-1,0-1.4c0-0.6-0.1-1.2-0.1-1.8c0-0.8,0-1.6,0.1-2.4
		c0-0.2,0.2-0.3,0.4-0.3c0.2,0,0.4,0.1,0.4,0.3C287,274.6,287.1,275.4,287.1,276.2C287.2,276.2,287.2,276.2,287.1,276.2z"/>
</g>
<rect x="230.6" y="247" class="st0" width="130.4" height="64.8"/>
<text id="XMLID_4_" transform="matrix(1 0 0 1 15.7099 307.5566)" class="st1 st2 st3">boutique vilains garçons</text>
</svg>
